<?xml version="1.0" encoding="UTF-8"?><svg id="Layer_2" xmlns="http://www.w3.org/2000/svg" viewBox="0 0 378.81 222.64"><defs><style>.cls-1{fill:#143cf8;opacity:.1;}.cls-2{fill:#a43bda;}.cls-3{fill:#4f97f3;}</style></defs><g id="Layer_1-2"><rect class="cls-1" y="0" width="378.81" height="106.03" rx="12.63" ry="12.63"/><g><path class="cls-3" d="M306.37,24.35l4.85,10.37c1.75-.85,3.64-1.45,5.63-1.74l-.35-11.49c-3.59,.37-7.01,1.37-10.13,2.87Z"/><path class="cls-3" d="M319.74,21.32v11.42c10.78,0,19.55,8.77,19.55,19.55s-8.77,19.55-19.55,19.55-19.55-8.77-19.55-19.55c0-6.64,3.33-12.5,8.4-16.04l-5.5-10.06c-8.6,5.51-14.32,15.15-14.32,26.1,0,17.08,13.9,30.98,30.97,30.98s30.97-13.9,30.97-30.98-13.9-30.97-30.97-30.97Z"/></g><rect class="cls-2" x="16.48" y="12.65" width="76.09" height="76.09" rx="15.43" ry="15.43"/><rect class="cls-2" x="107.1" y="32.65" width="88.34" height="8.93" rx="3.14" ry="3.14"/><rect class="cls-2" x="107.1" y="48.82" width="58.19" height="8.93" rx="3.14" ry="3.14"/><rect class="cls-1" y="116.61" width="378.81" height="106.03" rx="12.63" ry="12.63"/><g><path class="cls-3" d="M306.37,140.96l4.85,10.37c1.75-.85,3.64-1.45,5.63-1.74l-.35-11.49c-3.59,.37-7.01,1.37-10.13,2.87Z"/><path class="cls-3" d="M319.74,137.92v11.42c10.78,0,19.55,8.77,19.55,19.55s-8.77,19.55-19.55,19.55-19.55-8.77-19.55-19.55c0-6.64,3.33-12.5,8.4-16.04l-5.5-10.06c-8.6,5.51-14.32,15.15-14.32,26.1,0,17.08,13.9,30.98,30.97,30.98s30.97-13.9,30.97-30.98-13.9-30.97-30.97-30.97Z"/></g><rect class="cls-2" x="16.48" y="129.26" width="76.09" height="76.09" rx="15.43" ry="15.43"/><rect class="cls-2" x="107.1" y="149.26" width="88.34" height="8.93" rx="3.14" ry="3.14"/><rect class="cls-2" x="107.1" y="165.43" width="58.19" height="8.93" rx="3.14" ry="3.14"/></g></svg>