<?xml version="1.0" encoding="UTF-8"?><svg id="Layer_2" xmlns="http://www.w3.org/2000/svg" viewBox="0 0 307.48 225.81"><defs><style>.cls-1{fill:#8d46cc;}.cls-2{fill:#143cf8;}.cls-3{fill:#a43bda;}.cls-4{fill:#fff;isolation:isolate;}</style></defs><g id="Layer_1-2"><g><rect class="cls-3" x="200.3" y="0" width="106.62" height="30.87" rx="15.43" ry="15.43"/><rect class="cls-3" x="200.3" y="38.08" width="106.62" height="30.87" rx="15.43" ry="15.43"/></g><rect class="cls-2" y="138.2" width="71.72" height="87.61" rx="10.68" ry="10.68"/><rect class="cls-2" x="77.58" y="138.2" width="71.72" height="87.61" rx="8.67" ry="8.67"/><rect class="cls-2" x="155.16" y="138.2" width="71.72" height="87.61" rx="9.87" ry="9.87"/><polygon class="cls-4" points="44.83 181.65 35.54 187.01 26.26 192.37 26.26 181.65 26.26 170.93 35.54 176.29 44.83 181.65"/><polygon class="cls-4" points="122.72 181.65 113.44 187.01 104.15 192.37 104.15 181.65 104.15 170.93 113.44 176.29 122.72 181.65"/><polygon class="cls-4" points="200.3 181.65 191.02 187.01 181.73 192.37 181.73 181.65 181.73 170.93 191.02 176.29 200.3 181.65"/><rect class="cls-2" x="235.77" y="138.2" width="71.72" height="87.61" rx="9.87" ry="9.87"/><polygon class="cls-4" points="280.91 181.65 271.62 187.01 262.34 192.37 262.34 181.65 262.34 170.93 271.62 176.29 280.91 181.65"/><g id="Layer_1-2"><path class="cls-1" d="M2.61,113.75s64.81-3.45,71.51-10.77,25.05-38.41,28.41-38.41,21.05-3.32,21.05-3.32c0,0,30.97-27.4,35.57-26.04h22.58V122.83H2.61v-9.08h0Z"/></g><rect class="cls-3" x=".66" y="0" width="88.34" height="8.93" rx="3.14" ry="3.14"/><rect class="cls-3" x=".66" y="16.17" width="58.19" height="8.93" rx="3.14" ry="3.14"/></g></svg>