<?xml version="1.0" encoding="UTF-8"?><svg id="Layer_2" xmlns="http://www.w3.org/2000/svg" viewBox="0 0 368.43 224.5"><defs><style>.cls-1{opacity:.1;}.cls-1,.cls-2{fill:#143cf8;}.cls-3{fill:#fff;}.cls-4{fill:#4f97f3;}.cls-5{isolation:isolate;}</style></defs><g id="Layer_1-2"><rect class="cls-1" width="368.43" height="71.64" rx="12.63" ry="12.63"/><rect class="cls-1" y="76.78" width="368.43" height="71.64" rx="12.63" ry="12.63"/><rect class="cls-1" y="152.86" width="368.43" height="71.64" rx="12.63" ry="12.63"/><g class="cls-5"><rect class="cls-3" x="180.89" y="11.22" width="48.3" height="50.2" rx="12.7" ry="12.7"/></g><g class="cls-5"><rect class="cls-3" x="239.29" y="11.22" width="52.07" height="50.2" rx="12.7" ry="12.7"/></g><g class="cls-5"><rect class="cls-3" x="304.1" y="11.22" width="54.81" height="50.2" rx="12.7" ry="12.7"/></g><rect class="cls-2" x="79.46" y="22.01" width="88.34" height="8.93" rx="3.14" ry="3.14"/><g class="cls-5"><rect class="cls-3" x="79.46" y="38.18" width="58.19" height="8.93" rx="3.14" ry="3.14"/></g><g id="Layer_1-2"><g id="cF1M2I"><path class="cls-4" d="M202.08,52.58c-.71-.13-1.43-.23-2.12-.41-4.46-1.21-7.5-5.59-6.95-10,.6-4.88,4.56-8.45,9.39-8.49,.49,0,.99,0,1.53,0v5.01c-.72,0-1.47-.11-2.18,.02-2.39,.43-3.98,2.57-3.7,4.84,.32,2.51,2.31,4.16,4.86,4.02,2.28-.13,4.11-2.08,4.13-4.5,.03-4.69,.02-9.37,.03-14.06,0-2.33,.02-4.67,.04-7h4.76c.06,.23,.16,.46,.19,.7,.34,2.85,1.77,4.97,4.36,6.19,1.02,.48,2.17,.67,3.29,.99v4.91c-1.39-.28-2.73-.43-3.97-.85-1.26-.42-2.43-1.12-3.7-1.72v.71c.01,3.37,.04,6.74,.03,10.11-.02,4.36-2.83,7.99-7.04,9.12-.65,.17-1.32,.27-1.98,.4h-.95Z"/></g></g><g id="PKtARu.tif"><g><path class="cls-4" d="M273.48,52.92h-16.28c-.11-.02-.21-.04-.32-.06-1.23-.14-2.41-.48-3.47-1.11-3.12-1.84-4.72-4.59-4.74-8.21-.03-4.88-.01-9.76,0-14.64,0-.62,.03-1.25,.16-1.84,.83-3.8,3.12-6.23,6.87-7.27,.49-.13,1-.18,1.5-.27h16.28c.34,.05,.68,.09,1.02,.16,3.78,.85,6.2,3.14,7.24,6.89,.13,.49,.18,1,.27,1.5v16.32c-.05,.34-.09,.69-.16,1.03-.85,3.78-3.14,6.22-6.87,7.25-.49,.13-1,.19-1.5,.27Zm-8.18-2.96h7.26c.76,0,1.52-.08,2.24-.34,2.64-.94,4.24-3.22,4.25-6.09,0-4.88,.01-9.76-.01-14.65,0-.72-.11-1.46-.34-2.14-.9-2.68-3.2-4.27-6.09-4.27-4.85,0-9.7-.01-14.55,.01-.73,0-1.49,.1-2.17,.33-2.65,.89-4.26,3.2-4.27,6.06,0,4.89,0,9.79,0,14.68,0,2.18,.87,3.94,2.63,5.23,1.13,.83,2.43,1.17,3.82,1.17,2.41,0,4.82,0,7.23,0Z"/><path class="cls-4" d="M265.34,44.82c-4.72,0-8.6-3.9-8.59-8.62,0-4.74,3.9-8.62,8.61-8.6,4.72,.02,8.57,3.88,8.58,8.6,0,4.72-3.88,8.62-8.59,8.62Zm5.63-8.62c0-3.12-2.54-5.64-5.63-5.63-3.11,0-5.63,2.54-5.62,5.65,0,3.12,2.54,5.64,5.63,5.63,3.11,0,5.63-2.54,5.62-5.65Z"/><path class="cls-4" d="M274.29,29.43c-1.18,0-2.15-.97-2.17-2.16s.98-2.18,2.18-2.18c1.18,0,2.15,.96,2.17,2.15,0,1.18-.99,2.19-2.18,2.18Z"/></g></g><path class="cls-4" d="M332.84,45.52h-.75s-.04-.02-.06-.02c-.24,0-.48,0-.72,0-.5-.01-1-.02-1.49-.03-.64-.01-1.28-.02-1.92-.04-.63-.01-1.27-.02-1.91-.03-.77-.01-1.55-.02-2.33-.03-.38,0-.77-.02-1.15-.05-.46-.03-.93-.08-1.39-.15-.28-.05-.56-.09-.84-.18-.63-.19-1.15-.52-1.55-1.05-.29-.37-.48-.79-.63-1.24-.19-.6-.3-1.21-.36-1.83-.06-.55-.1-1.11-.15-1.66-.02-.2-.03-.41-.04-.61,0-.01,0-.02,0-.03,0-.09-.01-.19-.02-.28,0-.02,0-.03,0-.05,0-.12-.01-.23-.02-.35,0-.02,0-.05,0-.07,0-.16-.01-.32-.02-.47,0-.05,0-.09,0-.14,0-.12,0-.23,0-.35,0-.19,0-.38,0-.57,0-.11,0-.21,0-.32,0-.12,0-.24,0-.37,0-.03,0-.07,0-.1,0-.16,.01-.33,.02-.49,0-.02,0-.05,0-.07,0-.11,.01-.22,.02-.33,0-.02,0-.05,0-.07,0-.09,.01-.18,.02-.26,0-.02,0-.03,0-.05,0-.08,.01-.16,.02-.25,0-.01,0-.02,0-.03,0-.07,.01-.14,.02-.21,0-.02,0-.03,0-.05,.03-.32,.05-.63,.09-.95,.04-.34,.07-.69,.12-1.03,.05-.39,.11-.77,.17-1.16,.05-.31,.12-.61,.23-.91,.19-.51,.47-.95,.89-1.3,.51-.44,1.12-.66,1.78-.74,.24-.03,.48-.04,.72-.05,.62-.04,1.23-.07,1.85-.11,.58-.03,1.16-.06,1.74-.08,.62-.02,1.24-.04,1.85-.05,.72-.02,1.43-.02,2.15-.04,.18,0,.37,0,.55,0,.02,0,.04,0,.06,0,.68,0,1.35,0,2.03,0,.06,0,.11,0,.17,0,.36,0,.72,0,1.08,.01,.43,0,.87,.01,1.3,.02,.57,.01,1.14,.02,1.71,.03,.45,0,.89,.02,1.34,.03,.38,.01,.77,.02,1.15,.03,.32,0,.64,.02,.96,.07,.36,.05,.73,.11,1.09,.17,.4,.07,.78,.2,1.13,.39,.57,.31,.98,.77,1.28,1.34,.24,.46,.39,.95,.49,1.45,.11,.52,.17,1.05,.22,1.58,.03,.34,.06,.68,.08,1.03,.03,.38,.06,.77,.08,1.15,.02,.3,.02,.59,.03,.89,0,.12,0,.23,0,.35,0,.11,0,.21,0,.31,0,.09,0,.19,0,.28,0,.11,0,.21,0,.32v.33c-.01,.34-.02,.69-.04,1.03-.03,.5-.07,1-.11,1.5-.03,.38-.08,.76-.13,1.14-.06,.47-.13,.94-.23,1.41-.11,.5-.25,.99-.49,1.45-.25,.49-.6,.89-1.08,1.17-.41,.24-.85,.36-1.31,.41-.35,.04-.7,.06-1.05,.08-.4,.03-.81,.05-1.21,.08-.42,.03-.85,.05-1.27,.08-.33,.02-.65,.03-.98,.05-.32,.01-.65,.03-.97,.04-.25,0-.5,.02-.75,.03-.1,0-.2,0-.3,0-.13,0-.25,0-.38,0-.24,0-.47,0-.71,0-.02,0-.03,.01-.05,.02h0Zm-4.73-13.03c-.02,.13-.01,7.68,0,7.74,2.23-1.28,4.46-2.56,6.69-3.84,0,0,.02-.01,.03-.02,0,0,0,0,0,0,0,0,0,0,0,0-2.24-1.29-4.48-2.57-6.72-3.86h0Z"/><g class="cls-5"><rect class="cls-3" x="180.89" y="87.46" width="48.3" height="50.2" rx="12.7" ry="12.7"/></g><g class="cls-5"><rect class="cls-3" x="239.29" y="87.46" width="52.07" height="50.2" rx="12.7" ry="12.7"/></g><g class="cls-5"><rect class="cls-3" x="304.1" y="87.46" width="54.81" height="50.2" rx="12.7" ry="12.7"/></g><rect class="cls-2" x="79.46" y="98.24" width="88.34" height="8.93" rx="3.14" ry="3.14"/><g class="cls-5"><rect class="cls-3" x="79.46" y="114.41" width="58.19" height="8.93" rx="3.14" ry="3.14"/></g><g id="Layer_1-2-2"><g id="cF1M2I-2"><path class="cls-4" d="M202.08,128.81c-.71-.13-1.43-.23-2.12-.41-4.46-1.21-7.5-5.59-6.95-10,.6-4.88,4.56-8.45,9.39-8.49,.49,0,.99,0,1.53,0v5.01c-.72,0-1.47-.11-2.18,.02-2.39,.43-3.98,2.57-3.7,4.84,.32,2.51,2.31,4.16,4.86,4.02,2.28-.13,4.11-2.08,4.13-4.5,.03-4.69,.02-9.37,.03-14.06,0-2.33,.02-4.67,.04-7h4.76c.06,.23,.16,.46,.19,.7,.34,2.85,1.77,4.97,4.36,6.19,1.02,.48,2.17,.67,3.29,.99v4.91c-1.39-.28-2.73-.43-3.97-.85-1.26-.42-2.43-1.12-3.7-1.72v.71c.01,3.37,.04,6.74,.03,10.11-.02,4.36-2.83,7.99-7.04,9.12-.65,.17-1.32,.27-1.98,.4h-.95Z"/></g></g><g id="PKtARu.tif-2"><g><path class="cls-4" d="M273.48,129.15h-16.28c-.11-.02-.21-.04-.32-.06-1.23-.14-2.41-.48-3.47-1.11-3.12-1.84-4.72-4.59-4.74-8.21-.03-4.88-.01-9.76,0-14.64,0-.62,.03-1.25,.16-1.84,.83-3.8,3.12-6.23,6.87-7.27,.49-.13,1-.18,1.5-.27h16.28c.34,.05,.68,.09,1.02,.16,3.78,.85,6.2,3.14,7.24,6.89,.13,.49,.18,1,.27,1.5v16.32c-.05,.34-.09,.69-.16,1.03-.85,3.78-3.14,6.22-6.87,7.25-.49,.13-1,.19-1.5,.27Zm-8.18-2.96h7.26c.76,0,1.52-.08,2.24-.34,2.64-.94,4.24-3.22,4.25-6.09,0-4.88,.01-9.76-.01-14.65,0-.72-.11-1.46-.34-2.14-.9-2.68-3.2-4.27-6.09-4.27-4.85,0-9.7-.01-14.55,.01-.73,0-1.49,.1-2.17,.33-2.65,.89-4.26,3.2-4.27,6.06,0,4.89,0,9.79,0,14.68,0,2.18,.87,3.94,2.63,5.23,1.13,.83,2.43,1.17,3.82,1.17,2.41,0,4.82,0,7.23,0Z"/><path class="cls-4" d="M265.34,121.06c-4.72,0-8.6-3.9-8.59-8.62,0-4.74,3.9-8.62,8.61-8.6,4.72,.02,8.57,3.88,8.58,8.6,0,4.72-3.88,8.62-8.59,8.62Zm5.63-8.62c0-3.12-2.54-5.64-5.63-5.63-3.11,0-5.63,2.54-5.62,5.65,0,3.12,2.54,5.64,5.63,5.63,3.11,0,5.63-2.54,5.62-5.65Z"/><path class="cls-4" d="M274.29,105.66c-1.18,0-2.15-.97-2.17-2.16s.98-2.18,2.18-2.18c1.18,0,2.15,.96,2.17,2.15,0,1.18-.99,2.19-2.18,2.18Z"/></g></g><path class="cls-4" d="M332.84,121.76h-.75s-.04-.02-.06-.02c-.24,0-.48,0-.72,0-.5-.01-1-.02-1.49-.03-.64-.01-1.28-.02-1.92-.04-.63-.01-1.27-.02-1.91-.03-.77-.01-1.55-.02-2.33-.03-.38,0-.77-.02-1.15-.05-.46-.03-.93-.08-1.39-.15-.28-.05-.56-.09-.84-.18-.63-.19-1.15-.52-1.55-1.05-.29-.37-.48-.79-.63-1.24-.19-.6-.3-1.21-.36-1.83-.06-.55-.1-1.11-.15-1.66-.02-.2-.03-.41-.04-.61,0-.01,0-.02,0-.03,0-.09-.01-.19-.02-.28,0-.02,0-.03,0-.05,0-.12-.01-.23-.02-.35,0-.02,0-.05,0-.07,0-.16-.01-.32-.02-.47,0-.05,0-.09,0-.14,0-.12,0-.23,0-.35,0-.19,0-.38,0-.57,0-.11,0-.21,0-.32,0-.12,0-.24,0-.37,0-.03,0-.07,0-.1,0-.16,.01-.33,.02-.49,0-.02,0-.05,0-.07,0-.11,.01-.22,.02-.33,0-.02,0-.05,0-.07,0-.09,.01-.18,.02-.26,0-.02,0-.03,0-.05,0-.08,.01-.16,.02-.25,0-.01,0-.02,0-.03,0-.07,.01-.14,.02-.21,0-.02,0-.03,0-.05,.03-.32,.05-.63,.09-.95,.04-.34,.07-.69,.12-1.03,.05-.39,.11-.77,.17-1.16,.05-.31,.12-.61,.23-.91,.19-.51,.47-.95,.89-1.3,.51-.44,1.12-.66,1.78-.74,.24-.03,.48-.04,.72-.05,.62-.04,1.23-.07,1.85-.11,.58-.03,1.16-.06,1.74-.08,.62-.02,1.24-.04,1.85-.05,.72-.02,1.43-.02,2.15-.04,.18,0,.37,0,.55,0,.02,0,.04,0,.06,0,.68,0,1.35,0,2.03,0,.06,0,.11,0,.17,0,.36,0,.72,0,1.08,.01,.43,0,.87,.01,1.3,.02,.57,.01,1.14,.02,1.71,.03,.45,0,.89,.02,1.34,.03,.38,.01,.77,.02,1.15,.03,.32,0,.64,.02,.96,.07,.36,.05,.73,.11,1.09,.17,.4,.07,.78,.2,1.13,.39,.57,.31,.98,.77,1.28,1.34,.24,.46,.39,.95,.49,1.45,.11,.52,.17,1.05,.22,1.58,.03,.34,.06,.68,.08,1.03,.03,.38,.06,.77,.08,1.15,.02,.3,.02,.59,.03,.89,0,.12,0,.23,0,.35,0,.11,0,.21,0,.31,0,.09,0,.19,0,.28,0,.11,0,.21,0,.32v.33c-.01,.34-.02,.69-.04,1.03-.03,.5-.07,1-.11,1.5-.03,.38-.08,.76-.13,1.14-.06,.47-.13,.94-.23,1.41-.11,.5-.25,.99-.49,1.45-.25,.49-.6,.89-1.08,1.17-.41,.24-.85,.36-1.31,.41-.35,.04-.7,.06-1.05,.08-.4,.03-.81,.05-1.21,.08-.42,.03-.85,.05-1.27,.08-.33,.02-.65,.03-.98,.05-.32,.01-.65,.03-.97,.04-.25,0-.5,.02-.75,.03-.1,0-.2,0-.3,0-.13,0-.25,0-.38,0-.24,0-.47,0-.71,0-.02,0-.03,.01-.05,.02h0Zm-4.73-13.03c-.02,.13-.01,7.68,0,7.74,2.23-1.28,4.46-2.56,6.69-3.84,0,0,.02-.01,.03-.02,0,0,0,0,0,0,0,0,0,0,0,0-2.24-1.29-4.48-2.57-6.72-3.86h0Z"/><g class="cls-5"><rect class="cls-3" x="180.89" y="163.69" width="48.3" height="50.2" rx="12.7" ry="12.7"/></g><g class="cls-5"><rect class="cls-3" x="239.29" y="163.69" width="52.07" height="50.2" rx="12.7" ry="12.7"/></g><g class="cls-5"><rect class="cls-3" x="304.1" y="163.69" width="54.81" height="50.2" rx="12.7" ry="12.7"/></g><rect class="cls-2" x="79.46" y="174.48" width="88.34" height="8.93" rx="3.14" ry="3.14"/><g class="cls-5"><rect class="cls-3" x="79.46" y="190.65" width="58.19" height="8.93" rx="3.14" ry="3.14"/></g><g id="Layer_1-2-3"><g id="cF1M2I-3"><path class="cls-4" d="M202.08,205.05c-.71-.13-1.43-.23-2.12-.41-4.46-1.21-7.5-5.59-6.95-10,.6-4.88,4.56-8.45,9.39-8.49,.49,0,.99,0,1.53,0v5.01c-.72,0-1.47-.11-2.18,.02-2.39,.43-3.98,2.57-3.7,4.84,.32,2.51,2.31,4.16,4.86,4.02,2.28-.13,4.11-2.08,4.13-4.5,.03-4.69,.02-9.37,.03-14.06,0-2.33,.02-4.67,.04-7h4.76c.06,.23,.16,.46,.19,.7,.34,2.85,1.77,4.97,4.36,6.19,1.02,.48,2.17,.67,3.29,.99v4.91c-1.39-.28-2.73-.43-3.97-.85-1.26-.42-2.43-1.12-3.7-1.72v.71c.01,3.37,.04,6.74,.03,10.11-.02,4.36-2.83,7.99-7.04,9.12-.65,.17-1.32,.27-1.98,.4h-.95Z"/></g></g><g id="PKtARu.tif-3"><g><path class="cls-4" d="M273.48,205.39h-16.28c-.11-.02-.21-.04-.32-.06-1.23-.14-2.41-.48-3.47-1.11-3.12-1.84-4.72-4.59-4.74-8.21-.03-4.88-.01-9.76,0-14.64,0-.62,.03-1.25,.16-1.84,.83-3.8,3.12-6.23,6.87-7.27,.49-.13,1-.18,1.5-.27h16.28c.34,.05,.68,.09,1.02,.16,3.78,.85,6.2,3.14,7.24,6.89,.13,.49,.18,1,.27,1.5v16.32c-.05,.34-.09,.69-.16,1.03-.85,3.78-3.14,6.22-6.87,7.25-.49,.13-1,.19-1.5,.27Zm-8.18-2.96h7.26c.76,0,1.52-.08,2.24-.34,2.64-.94,4.24-3.22,4.25-6.09,0-4.88,.01-9.76-.01-14.65,0-.72-.11-1.46-.34-2.14-.9-2.68-3.2-4.27-6.09-4.27-4.85,0-9.7-.01-14.55,.01-.73,0-1.49,.1-2.17,.33-2.65,.89-4.26,3.2-4.27,6.06,0,4.89,0,9.79,0,14.68,0,2.18,.87,3.94,2.63,5.23,1.13,.83,2.43,1.17,3.82,1.17,2.41,0,4.82,0,7.23,0Z"/><path class="cls-4" d="M265.34,197.29c-4.72,0-8.6-3.9-8.59-8.62,0-4.74,3.9-8.62,8.61-8.6,4.72,.02,8.57,3.88,8.58,8.6,0,4.72-3.88,8.62-8.59,8.62Zm5.63-8.62c0-3.12-2.54-5.64-5.63-5.63-3.11,0-5.63,2.54-5.62,5.65,0,3.12,2.54,5.64,5.63,5.63,3.11,0,5.63-2.54,5.62-5.65Z"/><path class="cls-4" d="M274.29,181.9c-1.18,0-2.15-.97-2.17-2.16s.98-2.18,2.18-2.18c1.18,0,2.15,.96,2.17,2.15,0,1.18-.99,2.19-2.18,2.18Z"/></g></g><path class="cls-4" d="M332.84,197.99h-.75s-.04-.02-.06-.02c-.24,0-.48,0-.72,0-.5-.01-1-.02-1.49-.03-.64-.01-1.28-.02-1.92-.04-.63-.01-1.27-.02-1.91-.03-.77-.01-1.55-.02-2.33-.03-.38,0-.77-.02-1.15-.05-.46-.03-.93-.08-1.39-.15-.28-.05-.56-.09-.84-.18-.63-.19-1.15-.52-1.55-1.05-.29-.37-.48-.79-.63-1.24-.19-.6-.3-1.21-.36-1.83-.06-.55-.1-1.11-.15-1.66-.02-.2-.03-.41-.04-.61,0-.01,0-.02,0-.03,0-.09-.01-.19-.02-.28,0-.02,0-.03,0-.05,0-.12-.01-.23-.02-.35,0-.02,0-.05,0-.07,0-.16-.01-.32-.02-.47,0-.05,0-.09,0-.14,0-.12,0-.23,0-.35,0-.19,0-.38,0-.57,0-.11,0-.21,0-.32,0-.12,0-.24,0-.37,0-.03,0-.07,0-.1,0-.16,.01-.33,.02-.49,0-.02,0-.05,0-.07,0-.11,.01-.22,.02-.33,0-.02,0-.05,0-.07,0-.09,.01-.18,.02-.26,0-.02,0-.03,0-.05,0-.08,.01-.16,.02-.25,0-.01,0-.02,0-.03,0-.07,.01-.14,.02-.21,0-.02,0-.03,0-.05,.03-.32,.05-.63,.09-.95,.04-.34,.07-.69,.12-1.03,.05-.39,.11-.77,.17-1.16,.05-.31,.12-.61,.23-.91,.19-.51,.47-.95,.89-1.3,.51-.44,1.12-.66,1.78-.74,.24-.03,.48-.04,.72-.05,.62-.04,1.23-.07,1.85-.11,.58-.03,1.16-.06,1.74-.08,.62-.02,1.24-.04,1.85-.05,.72-.02,1.43-.02,2.15-.04,.18,0,.37,0,.55,0,.02,0,.04,0,.06,0,.68,0,1.35,0,2.03,0,.06,0,.11,0,.17,0,.36,0,.72,0,1.08,.01,.43,0,.87,.01,1.3,.02,.57,.01,1.14,.02,1.71,.03,.45,0,.89,.02,1.34,.03,.38,.01,.77,.02,1.15,.03,.32,0,.64,.02,.96,.07,.36,.05,.73,.11,1.09,.17,.4,.07,.78,.2,1.13,.39,.57,.31,.98,.77,1.28,1.34,.24,.46,.39,.95,.49,1.45,.11,.52,.17,1.05,.22,1.58,.03,.34,.06,.68,.08,1.03,.03,.38,.06,.77,.08,1.15,.02,.3,.02,.59,.03,.89,0,.12,0,.23,0,.35,0,.11,0,.21,0,.31,0,.09,0,.19,0,.28,0,.11,0,.21,0,.32v.33c-.01,.34-.02,.69-.04,1.03-.03,.5-.07,1-.11,1.5-.03,.38-.08,.76-.13,1.14-.06,.47-.13,.94-.23,1.41-.11,.5-.25,.99-.49,1.45-.25,.49-.6,.89-1.08,1.17-.41,.24-.85,.36-1.31,.41-.35,.04-.7,.06-1.05,.08-.4,.03-.81,.05-1.21,.08-.42,.03-.85,.05-1.27,.08-.33,.02-.65,.03-.98,.05-.32,.01-.65,.03-.97,.04-.25,0-.5,.02-.75,.03-.1,0-.2,0-.3,0-.13,0-.25,0-.38,0-.24,0-.47,0-.71,0-.02,0-.03,.01-.05,.02h0Zm-4.73-13.03c-.02,.13-.01,7.68,0,7.74,2.23-1.28,4.46-2.56,6.69-3.84,0,0,.02-.01,.03-.02,0,0,0,0,0,0,0,0,0,0,0,0-2.24-1.29-4.48-2.57-6.72-3.86h0Z"/><circle class="cls-2" cx="40.15" cy="186.57" r="23.57"/><circle class="cls-2" cx="40.15" cy="112.25" r="23.57"/><circle class="cls-2" cx="40.15" cy="36.32" r="23.57"/></g></svg>