<?xml version="1.0" encoding="UTF-8"?><svg id="Layer_2" xmlns="http://www.w3.org/2000/svg" viewBox="0 0 368.43 226.27"><defs><style>.cls-1{opacity:.1;}.cls-1,.cls-2{fill:#143cf8;}.cls-3{fill:#a43bda;}</style></defs><g id="Layer_1-2"><rect class="cls-1" width="368.43" height="71.64" rx="12.63" ry="12.63"/><rect class="cls-1" y="77.21" width="368.43" height="71.64" rx="12.63" ry="12.63"/><rect class="cls-1" y="154.63" width="368.43" height="71.64" rx="12.63" ry="12.63"/><rect class="cls-2" x="73.6" y="21.5" width="88.34" height="8.93" rx="3.14" ry="3.14"/><rect class="cls-2" x="73.6" y="37.67" width="58.19" height="8.93" rx="3.14" ry="3.14"/><rect class="cls-2" x="73.6" y="97.74" width="88.34" height="8.93" rx="3.14" ry="3.14"/><rect class="cls-2" x="73.6" y="113.91" width="58.19" height="8.93" rx="3.14" ry="3.14"/><rect class="cls-2" x="73.6" y="173.97" width="88.34" height="8.93" rx="3.14" ry="3.14"/><rect class="cls-2" x="73.6" y="190.14" width="58.19" height="8.93" rx="3.14" ry="3.14"/><circle class="cls-2" cx="34.28" cy="186.07" r="23.57"/><circle class="cls-2" cx="34.28" cy="111.75" r="23.57"/><circle class="cls-2" cx="34.28" cy="35.82" r="23.57"/><g><path class="cls-3" d="M294.7,48.51c-2.29,0-4.26-.36-5.93-1.07-1.67-.71-3.1-1.74-4.29-3.1l2.8-4.55c1.31,1.35,2.58,2.31,3.82,2.87,1.24,.56,2.53,.84,3.88,.84,.63,0,1.2-.08,1.71-.25,.51-.16,.91-.4,1.19-.72,.28-.32,.42-.71,.42-1.17,0-.35-.09-.67-.26-.95-.17-.28-.41-.52-.72-.73-.3-.21-.67-.4-1.08-.58-.42-.17-.86-.33-1.33-.46-.47-.13-.95-.24-1.44-.33-1.82-.4-3.32-.93-4.5-1.61-1.18-.68-2.06-1.52-2.64-2.54-.58-1.01-.88-2.21-.88-3.59,0-1.1,.25-2.11,.75-3.03,.5-.92,1.18-1.71,2.03-2.38,.85-.67,1.84-1.18,2.96-1.54,1.12-.36,2.29-.54,3.5-.54,1.98,0,3.76,.3,5.32,.91,1.56,.61,2.96,1.55,4.2,2.83l-2.52,4.13c-.93-.96-1.98-1.67-3.15-2.14-1.17-.47-2.39-.7-3.67-.7-.7,0-1.3,.09-1.8,.26-.5,.18-.89,.42-1.17,.74-.28,.32-.42,.69-.42,1.14,0,.4,.12,.73,.35,1.01,.23,.28,.55,.53,.94,.75,.4,.22,.85,.41,1.37,.56,.51,.15,1.05,.27,1.61,.37,1.28,.26,2.44,.6,3.48,1.02,1.04,.42,1.94,.93,2.7,1.54,.76,.61,1.34,1.32,1.75,2.15,.41,.83,.61,1.79,.61,2.89,0,1.7-.41,3.14-1.24,4.32-.83,1.18-1.96,2.08-3.4,2.7-1.44,.62-3.09,.93-4.95,.93Zm-2.1,2.83l.38-16.27,2.83,1.16,.39,15.12h-3.6Zm4.09-15.08l-2.83-1.15-.38-14.53h3.6l-.39,15.68Z"/><path class="cls-3" d="M315.74,48.51c-1.98,0-3.72-.41-5.2-1.24-1.48-.83-2.83-2.26-4.04-4.29l4.27-2.77c.51,.82,1.04,1.47,1.59,1.96,.55,.49,1.12,.85,1.71,1.07,.6,.22,1.22,.33,1.87,.33s1.25-.15,1.8-.44c.55-.29,.99-.71,1.33-1.24,.34-.54,.51-1.14,.51-1.82,0-.72-.15-1.34-.44-1.84-.29-.5-.71-.88-1.26-1.14s-1.21-.39-1.98-.39c-.35,0-.72,.04-1.12,.12-.4,.08-.82,.19-1.26,.33-.44,.14-.9,.33-1.36,.56l-1.29-3.46,5.95-6.48,1.61,.88-10.22-.21v-5h15.05l1.08,2.17-8.08,8.68-1.4-1.64c.19-.09,.5-.18,.93-.26,.43-.08,.85-.12,1.24-.12,1.1,0,2.12,.2,3.08,.59,.96,.4,1.81,.95,2.56,1.64,.75,.7,1.33,1.52,1.75,2.47s.63,1.96,.63,3.03c0,1.63-.41,3.09-1.24,4.36-.83,1.27-1.95,2.28-3.36,3.03-1.41,.75-2.98,1.12-4.71,1.12Z"/><path class="cls-3" d="M328.86,48.16V22.26h5.6v25.9h-5.6Zm5.39-5.46l-2.06-4.2,8.68-8.92h7.38l-14,13.12Zm7.21,5.46l-6.54-8.47,3.96-3.08,9.21,11.55h-6.62Z"/></g><g><path class="cls-3" d="M296.21,127.73c-2.29,0-4.26-.36-5.93-1.07-1.67-.71-3.1-1.74-4.29-3.1l2.8-4.55c1.31,1.35,2.58,2.31,3.82,2.87,1.24,.56,2.53,.84,3.88,.84,.63,0,1.2-.08,1.71-.25,.51-.16,.91-.4,1.19-.72,.28-.32,.42-.71,.42-1.17,0-.35-.09-.67-.26-.95-.17-.28-.41-.52-.72-.73-.3-.21-.67-.4-1.08-.58-.42-.17-.86-.33-1.33-.46-.47-.13-.95-.24-1.44-.33-1.82-.4-3.32-.93-4.5-1.61-1.18-.68-2.06-1.52-2.64-2.54-.58-1.01-.88-2.21-.88-3.59,0-1.1,.25-2.11,.75-3.03,.5-.92,1.18-1.71,2.03-2.38,.85-.67,1.84-1.18,2.96-1.54,1.12-.36,2.29-.54,3.5-.54,1.98,0,3.76,.3,5.32,.91,1.56,.61,2.96,1.55,4.2,2.83l-2.52,4.13c-.93-.96-1.98-1.67-3.15-2.14-1.17-.47-2.39-.7-3.67-.7-.7,0-1.3,.09-1.8,.26-.5,.18-.89,.42-1.17,.74-.28,.32-.42,.69-.42,1.14,0,.4,.12,.73,.35,1.01,.23,.28,.55,.53,.94,.75,.4,.22,.85,.41,1.37,.56,.51,.15,1.05,.27,1.61,.37,1.28,.26,2.44,.6,3.48,1.02,1.04,.42,1.94,.93,2.7,1.54,.76,.61,1.34,1.32,1.75,2.15,.41,.83,.61,1.79,.61,2.89,0,1.7-.41,3.14-1.24,4.32-.83,1.18-1.96,2.08-3.4,2.7-1.44,.62-3.09,.93-4.95,.93Zm-2.1,2.83l.38-16.27,2.83,1.16,.39,15.12h-3.6Zm4.09-15.08l-2.83-1.15-.38-14.53h3.6l-.39,15.68Z"/><path class="cls-3" d="M309.26,127.38l-1.15-2.87,7.14-7.8c.4-.44,.83-.95,1.3-1.5,.47-.56,.92-1.14,1.36-1.73,.44-.6,.8-1.17,1.07-1.73,.27-.56,.4-1.07,.4-1.54s-.1-.88-.31-1.23c-.21-.35-.51-.62-.91-.82-.4-.2-.9-.3-1.5-.3-.54,0-1.05,.13-1.54,.4-.49,.27-.95,.68-1.38,1.24-.43,.56-.83,1.25-1.21,2.06l-4.41-2.38c.49-1.35,1.18-2.55,2.08-3.59,.9-1.04,1.95-1.84,3.17-2.42,1.21-.57,2.51-.86,3.88-.86,1.45,.02,2.75,.33,3.92,.93,1.17,.6,2.09,1.42,2.78,2.49,.69,1.06,1.03,2.3,1.03,3.73,0,.49-.06,1-.17,1.54-.12,.54-.29,1.09-.52,1.66-.23,.57-.54,1.18-.93,1.82-.38,.64-.85,1.31-1.38,2.01-.54,.7-1.17,1.45-1.89,2.24l-5.56,6.05-.7-2.66h12.25v5.25h-16.8Z"/><path class="cls-3" d="M328.86,127.38v-25.9h5.6v25.9h-5.6Zm5.39-5.46l-2.06-4.2,8.68-8.92h7.38l-14,13.12Zm7.21,5.46l-6.54-8.47,3.96-3.08,9.21,11.55h-6.62Z"/></g><g><path class="cls-3" d="M272.13,203.96c-2.29,0-4.26-.36-5.93-1.07-1.67-.71-3.1-1.74-4.29-3.1l2.8-4.55c1.31,1.35,2.58,2.31,3.82,2.87,1.24,.56,2.53,.84,3.88,.84,.63,0,1.2-.08,1.71-.25,.51-.16,.91-.4,1.19-.72,.28-.32,.42-.71,.42-1.17,0-.35-.09-.67-.26-.95-.17-.28-.41-.52-.72-.73-.3-.21-.67-.4-1.08-.58-.42-.17-.86-.33-1.33-.46-.47-.13-.95-.24-1.44-.33-1.82-.4-3.32-.93-4.5-1.61-1.18-.68-2.06-1.52-2.64-2.54-.58-1.01-.88-2.21-.88-3.59,0-1.1,.25-2.11,.75-3.03,.5-.92,1.18-1.71,2.03-2.38,.85-.67,1.84-1.18,2.96-1.54,1.12-.36,2.29-.54,3.5-.54,1.98,0,3.76,.3,5.32,.91,1.56,.61,2.96,1.55,4.2,2.83l-2.52,4.13c-.93-.96-1.98-1.67-3.15-2.14-1.17-.47-2.39-.7-3.67-.7-.7,0-1.3,.09-1.8,.26-.5,.18-.89,.42-1.17,.74-.28,.32-.42,.69-.42,1.14,0,.4,.12,.73,.35,1.01,.23,.28,.55,.53,.94,.75,.4,.22,.85,.41,1.37,.56,.51,.15,1.05,.27,1.61,.37,1.28,.26,2.44,.6,3.48,1.02,1.04,.42,1.94,.93,2.7,1.54,.76,.61,1.34,1.32,1.75,2.15,.41,.83,.61,1.79,.61,2.89,0,1.7-.41,3.14-1.24,4.32-.83,1.18-1.96,2.08-3.4,2.7-1.44,.62-3.09,.93-4.95,.93Zm-2.1,2.83l.38-16.27,2.83,1.16,.39,15.12h-3.6Zm4.09-15.08l-2.83-1.15-.38-14.53h3.6l-.39,15.68Z"/><path class="cls-3" d="M290.5,201.9v-19.88l1.3,2.97-5.25,2.49-1.02-5.32,6.96-3.39h3.85v23.13h-5.85Zm-4.48,1.71v-5.25h14.91v5.25h-14.91Z"/><path class="cls-3" d="M314.55,203.96c-2.19,0-4.07-.5-5.62-1.5-1.55-1-2.74-2.44-3.55-4.32-.82-1.88-1.23-4.14-1.23-6.77s.41-4.89,1.23-6.77c.82-1.88,2-3.32,3.55-4.32,1.55-1,3.42-1.5,5.62-1.5s4.07,.5,5.64,1.5c1.56,1,2.75,2.44,3.57,4.32,.82,1.88,1.23,4.14,1.23,6.77s-.41,4.89-1.23,6.77c-.82,1.88-2.01,3.32-3.57,4.32-1.56,1-3.44,1.5-5.64,1.5Zm0-5.04c1.52,0,2.69-.65,3.52-1.96,.83-1.31,1.24-3.17,1.24-5.6s-.41-4.42-1.24-5.76c-.83-1.34-2-2.01-3.52-2.01s-2.69,.67-3.52,2.01c-.83,1.34-1.24,3.26-1.24,5.76s.41,4.29,1.24,5.6c.83,1.31,2,1.96,3.52,1.96Z"/><path class="cls-3" d="M328.86,203.61v-25.9h5.6v25.9h-5.6Zm5.39-5.46l-2.06-4.2,8.68-8.92h7.38l-14,13.12Zm7.21,5.46l-6.54-8.47,3.96-3.08,9.21,11.55h-6.62Z"/></g></g></svg>