<?xml version="1.0" encoding="UTF-8"?><svg id="Layer_2" xmlns="http://www.w3.org/2000/svg" viewBox="0 0 344.27 212.46"><defs><style>.cls-1{fill:#a43bda;}.cls-2{fill:#4f97f3;}.cls-3{fill:#fff;isolation:isolate;}</style></defs><g id="Layer_1-2"><rect class="cls-2" x="2.83" y="100.03" width="184.5" height="27.14"/><rect class="cls-2" x="2.83" y="131.81" width="108.57" height="27.14"/><rect class="cls-2" x="2.83" y="163.6" width="77.8" height="27.14"/><path class="cls-1" d="M288.97,212.46c-30.49,0-55.3-24.81-55.3-55.3s24.81-55.3,55.3-55.3,55.3,24.81,55.3,55.3-24.81,55.3-55.3,55.3Zm0-90.21c-19.25,0-34.9,15.66-34.9,34.9s15.66,34.9,34.9,34.9,34.9-15.66,34.9-34.9-15.66-34.9-34.9-34.9Z"/><polygon class="cls-3" points="288.97 91.16 288.97 133.29 272.64 135.07 253.73 100.47 261.03 98.54 275.5 129.51 284.04 130.24 282.89 92.01 288.97 91.16"/><rect class="cls-1" width="106.62" height="42.52" rx="15.43" ry="15.43"/><rect class="cls-1" x="113.42" width="106.62" height="42.52" rx="15.43" ry="15.43"/><rect class="cls-1" x="228.08" width="106.62" height="42.52" rx="15.43" ry="15.43"/></g></svg>